<svg width="20" height="24" viewBox="0 0 20 24" fill="none" xmlns="http://www.w3.org/2000/svg">
<path d="M19.7869 7.27978C19.6539 7.14681 19.4877 7.04709 19.2883 7.04709H15.0334V5.05263C15.0334 2.26039 12.773 0 9.98077 0C7.18853 0 4.92814 2.26039 4.92814 5.05263V7.04709H0.673291C0.473845 7.04709 0.30764 7.14681 0.174676 7.27978C0.0417119 7.41274 -0.0247701 7.61219 0.00847094 7.81164L1.83673 21.9723C1.96969 23.1357 2.96692 24 4.13035 24H15.8312C16.9946 24 17.9919 23.1357 18.1248 21.9723L19.9531 7.81164C19.9863 7.61219 19.9198 7.41274 19.7869 7.27978ZM6.25778 5.05263C6.25778 2.99169 7.91983 1.32964 9.98077 1.32964C12.0417 1.32964 13.7038 2.99169 13.7038 5.05263V7.04709H6.25778V5.05263ZM16.8284 21.8061C16.7619 22.3047 16.3298 22.6704 15.8312 22.6704H4.13035C3.63174 22.6704 3.19961 22.3047 3.13312 21.8061C2.73423 18.5485 1.737 10.8366 1.43783 8.37673H4.92814V12.7978C4.92814 13.1634 5.22731 13.4626 5.59296 13.4626C5.95861 13.4626 6.25778 13.1634 6.25778 12.7978V8.37673H13.7038V12.7978C13.7038 13.1634 14.0029 13.4626 14.3686 13.4626C14.7342 13.4626 15.0334 13.1634 15.0334 12.7978V8.37673H18.5237L16.8284 21.8061Z" fill="black"/>
</svg>
