<svg width="24" height="18" viewBox="0 0 24 18" fill="none" xmlns="http://www.w3.org/2000/svg">
<path fill-rule="evenodd" clip-rule="evenodd" d="M0.936881 1.82624C0.419617 1.82624 0 1.41726 0 0.913118C0 0.408974 0.419617 0 0.936881 0H23.0631C23.5804 0 24 0.408974 24 0.913118C24 1.41726 23.5804 1.82624 23.0631 1.82624H0.936881ZM0.936881 9.91312C0.419617 9.91312 0 9.50414 0 9C0 8.49586 0.419617 8.08688 0.936881 8.08688H12C12.5173 8.08688 12.9369 8.49586 12.9369 9C12.9369 9.50414 12.5173 9.91312 12 9.91312H0.936881ZM0.936881 18C0.419617 18 0 17.591 0 17.0869C0 16.5827 0.419617 16.1738 0.936881 16.1738H19.1749C19.6921 16.1738 20.1117 16.5827 20.1117 17.0869C20.1117 17.591 19.6921 18 19.1749 18H0.936881Z" fill="black"/>
</svg>
